<svg xmlns="http://www.w3.org/2000/svg" viewBox="0 0 1000 1000" style="enable-background:new 0 0 1000 1000" xml:space="preserve">
						<g stroke="none">
						<path d="M730 1001h-41c-12.8-48-25.6-95.9-38.4-143.7H520V1001h-37V857.3H346.4c-12.8 48.1-25.6 95.9-38.4 143.7h-41c.2-1.5.4-2.9.8-4.4 11.9-44.6 23.9-89.2 35.8-133.8.5-1.8.9-3.7 1.4-5.8H153.1v-37h50.3V105.9h256.8c4.1-15.2 8.2-30.2 12.3-45.4 3.3.7 6.3 1.3 9.6 1.9V51h38v11.6c3.5-.8 6.4-1.4 9.6-2.1 4.1 15.3 8.2 30.3 12.3 45.7h257.1v713.9H849v37H692.1c.2 1.2.3 1.8.5 2.4 9.3 34.7 18.6 69.3 27.8 104 3.3 12.4 6.4 25 9.6 37.5zM223.4 126.2v677.4h555.4V126.2H223.4z"/>
						<path d="M261.4 594.9c-.8-8.5-.4-18.2 5.5-26.1 4.6-6.1 10.5-11.3 16.4-16.3 3.9-3.3 8.8-5.7 13.2-8.4 12.4-7.3 25.8-7.9 39.6-6.1 1.2.2 2.3.4 3.5.4 8.6.3 17.2.7 25.9 1 12.4.4 23.3-4.2 33.4-10.8 5.5-3.6 11.4-7.1 15.7-11.9 8.7-9.7 16.5-20.1 24.4-30.4 12.2-16.1 27.7-27 48-29.8 5.6-.8 11.3-.4 17-.2 3.7.1 4.8-1.5 4-4.9-3.5-14.9-.5-29.6 2.2-44.2 3.7-20.4 10.7-39.7 21-57.6 6.6-11.5 14.6-22 26.1-29.8 12.4-8.4 25.5-14.9 40-18 15.7-3.3 30.8-2.2 45 6.7 8.4 5.3 15.7 11.5 21.3 19.5 5.6 8 9.2 17.1 11.2 26.8 2.4 11.9-.4 23.4-1.8 35.1-2.7 22.5-5 45.1 5.3 66.5 4.3 9 10.3 16.9 18.9 22.5 1.4.9 2.6 2.1 3.8 3.2 5.7 5.6 11.2 11.4 17.1 16.9 7 6.6 12.7 13.8 15.5 23.2 3.4 11.2 6.9 22.3 6.1 34.1-.5 8.3-3.3 16-9.3 21.9-7.3 7.2-14.6 14.6-22.9 20.5-6.3 4.5-14 7.3-21.4 10-13.6 5.1-27.9 6.1-42.2 5.2-8.3-.5-16.9-2.4-24.6-5.5-10.5-4.2-20.4-9.8-30.3-15.4-4.4-2.5-8.1-6.2-11.9-9.6-3.5-3.1-6.6-6.6-10.2-9.5-5.4-4.5-7.1-3.7-10.1 2.7-7.1 15.2-13.4 31-22.3 45.1-7 11.1-15.3 21.6-26.1 30.2-16.7 13.3-35.4 22.5-54.4 31.1-14.5 6.6-29.8 10.8-45.6 13.7-18.2 3.3-36.4 3.4-54.5 1-14.5-1.9-28.1-6.8-41.1-14.1-12.9-7.2-23.6-17.1-31.9-28.5-10.9-14.9-21-32.7-19.5-60.2zm115.8 87.2c7.1-.6 14.2-1.1 21.3-1.7 23.6-2 45.2-10.4 66.1-20.6 11.6-5.7 23.3-11.6 32.4-21.4 6.5-7 14.1-13 19.8-20.6 5.6-7.4 10-16 14.1-24.4 9.6-19.7 18.1-39.7 15-62.4-2-14.7-7.5-28.2-16.3-40-7-9.4-16.8-15.1-28.3-17.1-11.7-2.1-23.5 0-32.3 7-9.9 7.8-17.5 18.5-25.8 28.1-5.5 6.3-10.1 13.6-16.1 19.4-6 5.8-12.6 11.4-19.9 15.3-10.2 5.4-21 11.3-32.1 12.8-14.5 1.9-29.5-.5-44.2-.7-6.4-.1-13.3-1.1-19.1 1-7.9 2.8-15.5 7.3-22.3 12.3-6.4 4.7-12 10.8-11.3 20 .5 7.6.2 15.4 1.6 22.8 1.5 7.6 4.1 15.1 7.4 22.1 5.3 11.3 14.7 19.6 23.5 28 3.3 3.1 7.2 5.7 11.3 7.8 17.3 8.8 35.6 13.1 55.2 12.3zm281.1-317.3c-.8-4.5-.9-10.3-2.8-15.5-3.4-9.3-8.4-17.4-17.3-23.3-10.5-7-21.3-9.9-33.7-7.8-13.4 2.3-25.5 7.1-36.8 14.9-8 5.6-14.7 12.1-19.1 20.3-5.9 11.1-11.3 22.6-15.3 34.5-3.8 11.1-6.2 22.7-7.9 34.3-1.2 8.1-.5 16.5-.2 24.7.3 7.9.3 16.4 8.1 21.2 5.3 3.3 9 7.7 12.8 12.6 8.1 10.6 14.1 22.1 17.3 34.9 2.3 9.3 3.1 18.9 4.3 28.5.6 4.8 1.9 8.9 5.7 12.2 8.1 7 15.9 14.5 24 21.5 8.5 7.4 18.4 12.1 29.2 15.1 12.9 3.6 26.1 5.3 39.3 2.7 8.9-1.7 17.9-3.9 26.2-7.5 9.8-4.2 17.4-11.9 24.4-19.9 2-2.3 3.7-5.1 4.8-7.9 3.4-8.3-.2-16.4-1.6-24.5-1-5.9-2.8-12.5-6.5-17-7-8.6-14.9-16.8-23.7-23.5-12.1-9.4-21.3-20.3-27.3-34.5-8.7-20.2-10.4-40.9-7.4-62.4 1.4-10.7 2.2-21.6 3.5-33.6z"/>
						<path d="M391.1 599.2c-4.5-.7-12.8-1.7-21.1-3.3-2.7-.5-5.8-2.2-7.4-4.3-1.2-1.5-1.1-5.5.1-7 2.2-2.8 3.9-6.6 9.4-5.6 17.3 3.3 34.7 4.7 51.4-2.7 9.7-4.3 16.7-12.3 23.1-20.5 3.1-4 5.8-8.3 9-12.2 2.9-3.6 6.2-1.8 8.7.5 2.4 2.3 6.3 4.2 3.7 9-7.2 13.3-16.5 24.4-28.8 33.4-13.4 9.6-28.3 12.2-48.1 12.7zm221.3-156c-.5-13.1 2.7-24.2 7.3-34.9 2-4.7 7.1-8.3 10.1-7.2 4.6 1.5 6.6 6.3 5.3 12.4-1.6 7.6-3.1 15.2-4.8 22.8-2.3 10.2-.3 20 4.7 28.8 4.1 7.3 9.1 14 16.7 18.6 5.6 3.3 10.5 7.8 15.5 12.1 3.2 2.8 2.6 6.1.1 9.2-2.8 3.5-6.8 4.6-10.2 2.4-8.8-5.8-18.2-11.1-25.3-18.6-12-13-21.1-27.9-19.4-45.6z"/>
						</g>
					  </svg>