<svg xmlns="http://www.w3.org/2000/svg" viewBox="0 0 1000 1000" style="enable-background:new 0 0 1000 1000" xml:space="preserve">
						<g stroke="none">
						<path d="M574.85 31.53c-19.38 4.22-33.22 18.52-38.69 39.86-4.45 17.12-1.88 50.1 6.17 81.59 2.11 7.97 5.55 21.41 7.74 29.78 4.3 16.73 5.94 25.63 7.19 38.69 3.52 38.53-4.69 69.71-22.9 86.91-13.83 13.05-31.11 18.29-55.33 16.57-22.51-1.56-38.69-8.44-53.15-22.59-15.01-14.77-22.12-28.37-37.2-71.82-3.67-10.55-8.28-22.9-10.32-27.43-11.49-25.79-26.26-37.51-47.13-37.51-8.52 0-12.9 1.48-18.05 6.25-7.89 7.27-11.18 16.73-10.39 30.09.86 14.77 5.47 27.2 14.77 39.47 6.49 8.52 13.76 15.47 32.04 30.4 28.21 23.13 35.64 33.92 35.72 52.05 0 13.44-3.05 21.49-11.49 29.78-7.89 7.89-20.71 13.6-37.98 17.12-12.43 2.42-26.1 3.91-50.57 5.47-46.11 2.89-60.49 6.02-67.6 14.77-2.19 2.74-2.34 3.44-2.34 9.3 0 7.89 1.72 11.8 8.13 18.68 5.63 6.1 12.82 11.57 31.34 23.68 18.99 12.43 26.26 17.9 33.61 25.32 6.88 6.96 11.33 13.36 13.99 20.4 1.88 4.69 2.03 6.02 1.95 16.8-.08 10.32-.31 12.58-2.19 18.6-9.61 32.04-35.56 47.6-92.3 55.57-4.69.7-17.19 2.11-27.74 3.2-10.55 1.09-23.37 2.58-28.53 3.2-35.87 4.45-53.15 11.72-60.34 25.4-2.03 3.83-2.19 4.92-2.19 12.43 0 7.03.23 8.68 1.8 11.49 3.75 7.11 9.85 11.25 21.02 14.46 5.24 1.48 7.97 1.8 18.6 1.72 17.43 0 23.84-1.8 58.15-16.41 23.99-10.32 37.12-15.16 48.53-18.21 16.41-4.3 22.43-5.08 39.47-5.08 13.6 0 16.57.16 22.59 1.72 19.85 5 33.22 14.93 40.8 30.25 4.69 9.69 6.02 16.18 6.02 30.09-.08 18.99-3.28 33.61-11.1 49.63-12.82 26.34-28.92 42.13-80.11 78.62-39.23 27.9-57.44 46.11-68.39 68.31-8.13 16.49-11.41 31.81-10.79 50.41.23 9.46.7 12.35 2.42 17.74 4.85 14.85 16.1 25.32 31.89 29.62 6.02 1.64 19.38 2.27 27.35 1.17 33.06-4.45 55.8-23.21 74.48-61.43 8.21-16.88 12.66-28.68 27.28-73.07 13.29-40.33 20.48-59.71 27.82-74.25 22.98-45.96 51.58-66.74 94.18-68.54 18.21-.78 35.95 2.34 49.47 8.75 25.4 12.04 40.88 33.84 50.18 70.34 3.99 15.63 6.41 31.11 10.16 65.26 4.53 40.95 7.58 56.51 13.44 68.39 4.53 9.22 10.08 14.77 17.66 17.66 3.99 1.48 5.55 1.64 14.61 1.25 8.05-.31 11.41-.78 16.41-2.34 16.57-5.39 27.59-17.04 30.48-32.28 1.48-7.42 1.48-11.02 0-17.82-1.72-8.05-5.63-15.08-16.73-30.09-5.55-7.5-11.88-16.65-14.07-20.24-11.1-18.6-15.32-40.17-13.52-68.7 1.56-24.7 5-39.7 12.66-55.33 7.35-15.16 16.49-24.62 30.09-31.26 10.55-5.16 17.74-6.72 34-7.19 31.97-1.02 72.22 3.83 98.79 11.88 31.57 9.61 49.47 19.85 88 50.49 28.14 22.35 45.8 29.62 71.82 29.62 6.8 0 11.33-.39 14.22-1.25 13.99-4.14 23.68-14.54 27.82-30.01 1.95-7.03 1.88-24.15-.08-31.18-5.31-19.38-19.93-32.12-46.58-40.56-11.57-3.67-23.6-6.1-58.23-11.88-46.81-7.82-66.43-12.82-85.5-21.96-21.02-10-37.36-25.24-46.42-43.3-15.79-31.57-16.18-81.2-.86-114.34 6.64-14.46 19.3-29.39 33.61-39.7 8.21-5.94 28.45-16.1 40.56-20.55 4.77-1.72 18.91-6.25 31.5-10.16 30.87-9.61 40.33-13.52 49.32-20.24 5.31-3.99 8.21-7.5 10.86-13.21 1.95-4.14 2.11-5.31 2.03-13.52-.08-10.71-1.41-16.49-6.02-25.4-9.46-18.13-29.07-27.82-54.08-26.81-10.16.47-16.96 2.74-26.26 8.91-8.28 5.39-22.66 20.24-37.12 38.22-15.47 19.15-22.66 27.28-29.7 33.37-17.04 14.69-26.34 17.04-58.54 14.61-59.32-4.38-89.8-24.23-104.34-67.84-5.86-17.43-8.6-38.37-8.6-64.95 0-29.93 2.97-42.67 17.58-75.42 13.99-31.42 17.82-47.91 17.9-77.37.08-12.35-.16-14.85-1.72-20.55-3.6-13.29-8.99-22.35-18.44-31.18-12.08-11.29-28.57-15.91-44.59-12.39zM42.61 302.42c-7.74 1.02-18.6 4.22-24.15 7.19C9.24 314.45 2.6 323.13.8 332.74c-2.58 13.52.86 24.85 10.63 35.25 8.05 8.52 18.05 14.15 32.75 18.44 11.02 3.2 20.24 4.38 37.51 4.77 24.38.55 40.64-1.88 53.93-8.28 7.42-3.6 12.11-7.42 15.08-12.43 1.8-3.13 2.11-4.53 2.11-9.22-.08-4.85-.47-6.41-2.89-11.33-9.46-18.99-36.89-37.75-66.67-45.64-6.72-1.8-9.69-2.11-21.49-2.34-7.5-.17-16.1.07-19.15.46zm753.02 559.19c-16.41 2.89-27.59 9.14-36.65 20.48-8.05 10-11.33 20.01-11.33 34.15.08 7.97.39 10.32 2.11 15.63 2.81 8.6 6.96 15.32 13.44 21.81 6.41 6.49 13.13 10.63 21.88 13.52 5.47 1.8 7.5 2.11 16.41 2.11s10.94-.31 16.41-2.11c8.68-2.89 15.47-7.03 21.88-13.44 6.41-6.41 10.55-13.21 13.44-21.88 1.72-5.31 2.11-7.66 2.11-15.63 0-6.64-.39-10.86-1.33-14.46-5.24-19.07-20.24-33.92-39-38.61-5.3-1.33-15.93-2.19-19.37-1.57z"/>
						</g>
					</svg>