<svg xmlns="http://www.w3.org/2000/svg" viewBox="0 0 1000 1000" style="enable-background:new 0 0 1000 1000" xml:space="preserve">
								<g stroke="none">
								<path d="M22 946V535c5.9-13 5.7-26.7 5.7-40.5-.2-150.7-.1-301.3-.1-452 0-2.8.2-5.6.4-8.5h771c.1 2.8.4 5.6.4 8.5v443.8c0 7.3 0 7.3 7.1 7.3H930c5.7 0 11.3.7 16.7 2.7 18.3 6.7 28.9 20 33.3 38.7v411c-5.3 22.1-18.9 35.7-41 41H63c-22.1-5.3-35.7-18.9-41-41zm396.4-452.4h314.4c7.8 0 7.8 0 7.8-7.7V93c0-7.6 0-7.6-7.8-7.6H104.4c-8 0-8 0-8 7.9v392.4c0 7.9 0 7.9 8.1 7.9h313.9zm235.1 231H927c7.7 0 7.7 0 7.7-7.8v-90.5c0-6.7-.1-6.8-6.6-6.8H380.2c-6.5 0-6.7.2-6.7 6.8v90c0 8.3 0 8.3 8.1 8.3h271.9zM85 666c-.3 23.8 5.2 44.5 17.2 62.9 26.3 40.5 64 58.7 112.1 55.1 12.4-.9 24.5-4.8 37.2-2.7 4.3.7 7.9 2.1 11 5.2 10.8 10.9 21.6 21.7 32.3 32.7 2.5 2.6 4.1 3.1 6.8.2 16.7-17.9 34.3-35 51.8-52.1 3.3-3.2 3.5-5.1.1-8.3-10.6-10.1-20.9-20.6-31.3-30.9-1.7-1.7-3.3-3.5-3.5-5.9-1.2-10.7-3.3-21.5-1.4-32.3 3.2-18.4 2.4-36.4-2.6-54.4-12.6-45.7-54.4-80.4-101.6-84.5-14.8-1.3-29.2.4-43.5 3.8-10.5 2.5-20.2 1.3-28.3-7.4-10.2-11-21.2-21.2-31.7-31.9-2.4-2.4-4-2.6-6.5-.1-17.6 17.8-35.3 35.4-53 53-2.3 2.3-2.3 3.7.1 6 10.1 9.9 19.8 20.3 30.2 29.9 6.2 5.7 8.7 12.4 9 20.3.2 4.3-.1 8.7-1.1 12.9-2 10-3.8 20-3.3 28.5z"/>
								<path d="M323 364c-7.7 4.3-15 9.2-23.3 12.5-61.7 24.6-129.8-16.3-136.9-82.4-5.9-54.9 34.1-104.4 89-110.3 55-5.8 105 34.2 110.2 89.2 3.3 35-8.6 64.5-35.5 87.6-1.2 1-2.3 2.3-3.5 3.4zm-63.4-77.1c3 .3 5.6-.3 7.9-2.3 9.5-8.1 19.1-16.1 28.5-24.2 2-1.7 4.5-4 2.2-6.7-2.4-2.9-5.1-1-7.4.8-.9.7-1.8 1.5-2.7 2.2-7.4 6.2-14.9 12.3-22.1 18.7-3.5 3.1-7.1 4.1-11.8 3.4-18.1-2.6-36.3-4.9-54.4-7.2-2.6-.3-5.5-.3-6 2.9-.5 3 2 3.9 4.5 4.3 20.4 2.6 40.8 5.3 61.3 8.1zm6.1-84.6c-.1 0-.1 0 0 0-.1-3.2.1-6.3-.1-9.5-.1-1.8-1.2-3.2-3.2-3.3-2-.1-3.2 1.3-3.4 3-.9 6.3-.9 12.6 0 18.9.2 1.7 1.4 3.2 3.4 3.1 2.2-.1 3.2-1.7 3.3-3.7.1-2.9 0-5.7 0-8.5zm78.2 84.4c3-.1 6 .1 9-.1 2-.1 3.5-1.2 3.6-3.5 0-2-1.5-3-3.2-3.3-6.1-.8-12.3-.8-18.4 0-1.9.2-3.6 1.4-3.3 3.7.2 2.2 1.9 3.1 3.9 3.2 2.8.1 5.6 0 8.4 0zm-84.6 78.2c0 3-.1 6 .1 9 .1 2 1.2 3.6 3.4 3.6 2 0 3.1-1.5 3.3-3.2.8-6.1.8-12.3.1-18.4-.2-1.9-1.3-3.6-3.6-3.4-2.2.2-3.1 1.9-3.2 3.9-.2 2.8-.1 5.6-.1 8.5zm-78.1-84.5c-3-.1-6-.2-9 0-2 .1-3.6 1.2-3.7 3.4-.1 2 1.4 3.1 3.1 3.3 6.3.8 12.6.9 18.9-.1 1.7-.3 3.1-1.5 3-3.5-.2-1.9-1.5-3-3.3-3.1-3-.1-6 0-9 0zm129.5-74.9c0-2.1-.6-3.3-2-3.8-1.7-.6-3.1.1-4 1.4-3.6 5-6.7 10.3-9.2 15.9-.8 1.7-.5 3.7 1.5 4.7s3.6-.1 4.6-1.8c2.6-4.3 5.1-8.6 7.6-12.9.8-1.3 1.2-2.7 1.5-3.5zM184 235.3c-1.4 0-2.6.4-3.2 1.8-.7 1.6-.1 3.1 1.1 4 5.1 3.7 10.5 6.9 16.3 9.4 1.6.7 3.4.4 4.4-1.4 1.1-2 .2-3.6-1.5-4.7-3.5-2.2-7.1-4.3-10.7-6.4-2-1.1-4-2.5-6.4-2.7zM229.7 347c0-2-.5-3.2-1.9-3.8-1.8-.8-3.4 0-4.3 1.5-3 5-5.9 10-8.7 15.1-1 1.8-1.2 4.1 1.1 5.3 2.2 1.2 3.9-.3 5-2 2.7-4.4 5.3-8.9 7.8-13.3.6-1 .8-2.1 1-2.8zm114.9-18.4c-.2-.5-.3-1.3-.7-1.7-5.5-4.7-11.5-8.3-18.4-10.5-1.3-.4-2.6.4-3.2 1.8-.7 1.6-.3 3.1 1.1 4 5.2 3.6 10.6 6.9 16.4 9.3 2.2.9 4.3.1 4.8-2.9zM229.2 220c-3-5.8-5.8-12.5-11-17.9-.9-.9-2.2-.8-3.2 0-1.4 1-1.8 2.5-1.1 4 2.6 6 5.8 11.6 9.7 16.8.8 1.1 2.1 1.6 3.6 1.1 1.3-.5 1.9-1.7 2-4zm97 30.1c5.7-2.8 12-5.9 17.4-10.4 1.1-.9 1.3-2.3.4-3.6-.8-1.2-2.1-1.9-3.5-1.4-6.4 2.4-12.3 5.9-17.6 10.1-1.1.9-1.5 2.3-.7 3.6.7 1.4 1.9 1.8 4 1.7zm-27.5 92.7c-2.5.2-3.7 2.9-2.1 5.9 2.5 4.9 5.4 9.6 8.2 14.3 1.1 1.7 2.7 3.4 4.9 2.1 2.4-1.4 2-3.7.9-5.7-2.5-4.7-5.2-9.3-8-13.8-.8-1.6-2-2.7-3.9-2.8zM203.2 320c.1-2.6-2.5-4.1-5.6-2.5-4.9 2.5-9.6 5.3-14.3 8.2-1.9 1.1-3.8 2.7-2.2 5.3 1.5 2.4 3.8 1.7 5.8.7 4.7-2.6 9.3-5.3 13.8-8 1.3-.9 2.3-2.1 2.5-3.7zm466.2-36.1c0 55.7-44.3 99.6-100.4 99.5-55.7-.1-99.2-44.3-99.5-100.5-.3-54.5 45.5-100.1 100.7-99.4 55.4.7 99.2 44.5 99.2 100.4zm-137 65.3 1.2.6 4.8-4.2c7-6.2 14-12.4 21-18.5 1-.8 1.9-2.3 3.3-1.8 1.8.7 1.3 2.6 1.1 4-1.2 10.3-.5 20.6-1.8 30.9-.8 6.6.9 8.4 7.1 8.6 7.5.2 9-1 8.6-8-.6-13.1-1-26.3-2.4-39.4-.7-6.6 1.6-10.6 6.5-14.4 2.8-2.2 4.7-2.3 7.3.2 4 4 8.3 7.8 12.5 11.6 2.2 2 4.9 4.6 7.8 1.9 3.1-3 0-5.4-2.1-7.5-3.5-3.4-6.7-7.1-10.7-9.7-5.6-3.8-1.9-7.8-1-11.7 1-4 4.4-2.9 7-2.8 13.6.6 27.3 1.4 40.9 2 6.7.3 8.4-1.6 8-8.2-.3-5.9-2.6-7.7-8.8-7.2-13 .9-25.9 1.7-38.9 2.5-2.6.2-5.9.7-5.3-3.7 1-6.7 1.3-13.7 8.1-17.9 1.2-.8 2.3-2 3-3.3 1.5-2.5 1-5.2-1.9-5.4-4.5-.4-3.9-2.8-3.3-5.8 1-5.1 2-10.1 2.8-15.2.3-2.3 1.4-4.7.7-7.3-2.5.7-3.8 2.5-5.4 3.9-7.4 6.5-14.7 13-22.1 19.5-1.1.9-2.1 2.6-3.7 1.9-1.7-.7-1-2.7-.9-4.1.5-9.1 1.1-18.3 1.7-27.4.4-6.1-1-8.1-6.4-8.3-7.1-.3-8.9 1.2-8.9 7.4 0 4.2.4 8.3.6 12.5.5 9.6 1 19.3 1.4 28.9.2 5.4-4.3 7.7-7.9 10.1-3 1.9-4.6-1.7-6.5-3.3-4.4-3.6-8.5-7.5-12.8-11.2-2-1.7-4.4-3.3-6.6-1-2.5 2.5-.6 5 1.4 6.9 4.3 4 8.5 8 13 11.7 2.9 2.4 2.7 4.5 1.5 7.7-1.2 3.3-3.3 3.8-6.2 3.6-7.6-.5-15.3-.9-22.9-1.4-7.5-.5-15-1.1-22.4-1.4-6.3-.3-7.5 1-7.6 7.5 0 1.3 0 2.7.1 4 .2 3.2 1.9 5 5.1 4.9 3.8 0 7.7-.2 11.5-.4 11.6-.7 23.3-1.5 34.9-2.3 3.1-.2 4.6.9 4.1 4.4-.9 7.3-2.6 14.1-9.2 18.5-1.6 1.1-3.2 2.5-3.9 4.5-1.2 3.1.6 6 3.6 5.1 5.3-1.5 4.1 1.4 3.6 4.3-1.7 7.6-3.1 15.4-4.6 23.2z"/>
								<path d="M511 366.5c19.3 12.9 40 19.7 62.9 18.7 22.7-.9 42.8-9 60.7-23.2 1 2.1-.3 3.2-1 4.4-16.5 29.2-25.4 60.6-27.7 94.1-.9 13.3.7 10.9-11.4 11-18.3.2-36.7.1-55 0-6.9 0-7.2 0-7.5-7.1-.8-17.7-2.8-35.2-6.5-52.5-3-13.9-7.1-27.4-13.4-40.2-.5-1.3-1.6-2.5-1.1-5.2zM196.9 203.9c-.3-2.5 1-3.7 1.8-5.1 16.1-28.8 24.8-59.8 27.2-92.7 1-14.1-.7-11.4 11.9-11.5 18.3-.2 36.7.1 55-.2 5.2-.1 7 1.7 7.1 6.7.5 17.8 2.7 35.5 6.4 53 3 13.9 7.1 27.4 13.4 40.2.6 1.3 1.2 2.7 2.4 5.6-43.3-27-84.6-25.5-125.2 4zm432.1-4.7c-42.5-26.3-83.7-24.7-123.8 4.5-1-1.8.5-2.9 1.1-4 16.5-29.2 25.3-60.6 27.7-94.1.9-13.2-.7-10.8 11.4-10.9 18.2-.2 36.3 0 54.5 0 7.4 0 7.7 0 8.1 7.6.7 18 2.9 35.8 6.8 53.4 3 13.7 7.2 27 13.6 39.6.3 1 1.1 1.9.6 3.9zM323 364c1.5-.1 2.4-1.8 4.1-1.5.4 1.7-.8 2.8-1.5 4.1-16.4 29.1-25.2 60.3-27.5 93.5-1 13.6.7 11.1-11.7 11.2-18.3.2-36.6-.2-54.9.2-5.5.1-7.3-1.8-7.4-7-.5-18.5-2.8-36.8-6.9-54.9-3-13.4-7.1-26.3-13.2-38.6-.6-1.1-1.6-2.2-.9-3.8 2.2-.3 3.5 1.5 5.1 2.4 37 21.5 73.6 21 110-1.5 1.8-1.1 3.6-2.2 4.8-4.1zm117 354.4c-26.3 0-46.4-20.1-46.4-46.5 0-26.3 20.2-46.3 46.7-46.2 26 0 46.1 20.2 46.1 46.3 0 26.3-20.1 46.4-46.4 46.4zm107-92.8c26.4 0 46.4 20.1 46.4 46.5 0 26.3-20.2 46.3-46.6 46.3-26.3 0-46.2-20.2-46.2-46.7.1-26 20.2-46.1 46.4-46.1zM700.4 672c0 26.4-20.1 46.4-46.5 46.4-26.3 0-46.3-20.2-46.3-46.6 0-26.2 20.3-46.2 46.7-46.2 26 .1 46.1 20.3 46.1 46.4zm60.2 46.4c-26.2-.1-46.1-20.4-46-46.9.1-26.1 20.5-46 47-45.9 25.8.1 45.8 20.4 45.7 46.6 0 26.3-20.2 46.2-46.7 46.2zm153.8-46.3c0 26.3-20.2 46.3-46.6 46.3-26.2 0-46.2-20.3-46.1-46.7.1-26.2 20.3-46.1 46.9-46 25.8 0 45.8 20.2 45.8 46.4zm-712-105.5c55.1 0 99 44.4 99 99.8-.1 55.1-44.3 99-99.8 99-55.3 0-99.1-44.4-99-100.3.1-54.7 44.5-98.5 99.8-98.5zm-.7 183c46.6-.8 83.4-36.3 83.7-83.2.3-45.7-35.2-83.4-82.8-83.8-46.5-.4-83.8 35.8-83.9 83.2-.2 46.4 35.9 82.6 83 83.8z"/>
								<path d="M236 615.5c6.7-.1 12.1 5.1 12.3 11.9.2 6.5-5.3 12.1-12 12.3-6.3.3-12.1-5.4-12.3-12-.2-6.4 5.3-12 12-12.2zm-85.3 48.9c-6.6.1-12.1-5.4-12.1-12.1 0-6.7 5.2-12 12-12.2 6.4-.2 12 5.4 12.1 12.1.2 6.5-5.4 12.1-12 12.2zm39.9 1.3c-.1-6.7 5.3-12.1 12-12.1 6.8 0 12 5.2 12.2 12 .1 6.5-5.3 12-12 12.2-6.6.1-12.1-5.4-12.2-12.1zm-22.2 30.8c6.6 0 12 5.5 11.9 12.2 0 6.5-5.6 11.9-12.3 12-6.4.1-12-5.7-11.9-12.3 0-6.4 5.7-11.9 12.3-11.9zm97.8-14.6c-.1 6.5-5.7 11.9-12.4 11.9-6.4 0-11.9-5.8-11.9-12.4.1-6.5 5.7-11.9 12.4-11.9 6.7.2 12 5.7 11.9 12.4zm-34.2 41c0 6.4-5.6 12-12.2 12.1-6.4.1-12-5.6-12-12.2s5.5-12 12.2-12c6.6-.1 12 5.3 12 12.1zm-46.9-98.7c-6.6.1-11.9-5.3-12.1-12.1-.1-6.4 5.5-12 12.2-12.1 6.5-.1 12 5.5 12 12.2.1 6.5-5.4 12-12.1 12z"/>
								</g>
							  </svg>