<svg xmlns="http://www.w3.org/2000/svg" viewBox="0 0 1000 1000" style="enable-background:new 0 0 1000 1000" xml:space="preserve">
						<g stroke="none">
						<path d="M474 7h53c1.3.9 2.9.7 4.4.8 35.5 2 70.4 7.8 104.6 17.9 123.4 36.4 219 109.4 286.6 218.7 38.4 62.1 61 129.8 68.7 202.4 1 9.1 1.8 18.1 2.8 27.2v53c-.3 1.6-.7 3.2-.8 4.8-2.1 35.7-8.3 70.7-18.1 105.1-.4 1.3-.3 2.9-2.3 4v-6.3c0-69.2 0-138.3.1-207.5 0-4.7-.9-6.1-5.9-6.1-60.8.2-121.7.1-182.5.1-7.3 0-6.3-.8-6.3 6.4 0 154.8-.2 309.7.3 464.5 0 13.1-3.2 21.1-14.9 26.5-4.2 1.9-5.6 1.7-7.8-2.1-82.9-144-165.9-288-249-432-2-3.4-4-6.8-6.4-10.8-1.2 1.9-2 3.3-2.8 4.7L286.8 844c-14.1 24.4-28.2 48.7-42.1 73.2-1.8 3.2-3.2 4.1-6.4 1.7-3.3-2.5-6.8-4.9-10.5-6.7-4.2-2.1-5.1-5.2-5.1-9.7.1-158.5.1-317 .2-475.5 0-4.7-1-6.1-5.9-6.1-61 .2-122 .2-183 0-5 0-5.9 1.4-5.9 6.1.2 69.3.1 138.7.1 208v5.5c-1.3-.8-1.7-1.5-1.9-2.3-7.8-27.1-13.4-54.6-16.4-82.6-1.1-9.4-1.9-19-2.9-28.6v-53c.3-1.6.7-3.2.8-4.8 1.6-27.1 5.3-54 11.7-80.4C53 252 130.2 147.2 250.8 74.7c60.3-36.3 126-57.4 196-64.9 9-1 18.1-1.9 27.2-2.8zm68.8 60.2c.1-23-18.7-41.9-41.9-42-22.7-.1-41.8 18.9-41.8 41.6 0 22.9 18.6 41.8 41.4 42 23.1.2 42.2-18.6 42.3-41.6zM150.8 323c0-23-19-41.8-42.1-41.8-22.7.1-41.6 19.2-41.5 41.9.1 22.9 18.8 41.7 41.6 41.8 23 0 42-19 42-41.9zm734.4 41.8c22.8-.1 41.6-19 41.6-41.8 0-23-18.9-41.9-42-41.9-22.7 0-41.7 19.1-41.6 41.8.1 23.2 19 42 42 41.9z"/>
						<path d="M218 994H37c-.1-1-.2-2-.2-3 0-186.1 0-372.2-.1-558.3 0-4.6 1.9-4.9 5.6-4.9 56.3.1 112.6 0 168.9.1 7.9 0 6.9-1 6.9 6.8V988c.1 2 0 4-.1 6zm748 0H785c-.1-1.3-.2-2.7-.2-4 0-185.6 0-371.2-.1-556.8 0-4.5 1.2-5.5 5.6-5.5 56.3.1 112.6.1 168.9.1 7.9 0 6.9-1 6.9 6.8v553.3c.1 2.1 0 4.1-.1 6.1zm-492 0c-9.7-1-19.5-1.8-29.2-2.9-16.7-1.8-33.2-4.5-49.6-8.8h210.7c-8.9 2.9-18.2 4.4-27.4 5.8-16 2.5-32 4.5-48.1 5.2-1.1 0-2.2.5-3.4.7h-53zm26.3-480.6c1.9 1.2 2.5 3 3.4 4.6 78.3 135.9 156.7 271.8 235 407.7 3.2 5.6 3.2 5.6-2.4 8.7-18.3 10-37.2 18.7-56.5 26.3-2.5 1-5 1.5-7.8 1.5H329c-2.4 0-4.6-.2-6.8-1.1-20.2-7.9-39.8-17.1-58.8-27.4-3.4-1.9-3.9-3.3-1.9-6.8 78.9-136.6 157.6-273.2 236.4-409.8.7-1.2 1.5-2.4 2.4-3.7zm78.5 228.3c0-13.8-.1-27.6.1-41.5 0-2.9-.9-4.4-3.4-5.8-24-13.7-47.9-27.5-71.8-41.4-2.5-1.5-4.3-1.2-6.7.1-23.7 13.8-47.5 27.5-71.4 41.1-2.7 1.5-3.6 3.2-3.6 6.2.1 27.3.1 54.6 0 81.9 0 3.1.9 4.7 3.6 6.2 23.8 13.6 47.6 27.3 71.4 41.1 2.4 1.4 4.2 1.6 6.7.1 23.9-13.9 47.8-27.7 71.8-41.4 2.5-1.4 3.4-3 3.4-5.8-.2-13.4-.1-27.1-.1-40.8z"/>
						<path d="M500.4 774c-5 0-10-.1-15 0-2.2 0-3.6-.8-4.8-2.7-5.5-8.5-5.6-8.6 3.3-13.5 5.6-3.2 10.9-9.1 16.9-8.6 5.7.4 11 5.6 16.5 8.7 8.5 4.9 8.4 4.9 3.2 13.2-1.3 2.1-2.7 3.1-5.2 3-4.9-.2-9.9-.1-14.9-.1zm-6.2-48.7c3 8.9-2.4 14.3-11.3 18.1-3.9 1.7-7.5 4.2-11.2 6.5-1.8 1.1-2.7.8-4-1-3.3-4.5-4.3-8.5-.7-13.8 5-7.2 8.9-15.1 13.3-22.7 1.6-2.8 10.4-4.6 12.9-2.8 1.2.8.8 2 .9 3.2v.5c.1 3.4.1 6.9.1 12zm12.6-2.1c0-2-.4-4.1.1-6 .6-2.7-2.4-6.8 2.3-8 6.2-1.6 9.7-.1 12.5 4.8 4.7 8 9.3 16.1 13.9 24.1 1.6 2.8-.7 10.7-3.5 12.2-1.1.6-1.9-.1-2.7-.5-6.8-3.9-13.5-7.9-20.3-11.7-1.9-1-2.5-2.4-2.4-4.4.2-3.5.1-7 .1-10.5zm-71.4 39.1v-41.5c.3-.2.6-.3.9-.5 3.9 6.8 7.8 13.6 11.6 20.4.3.5.2 1.4-.1 1.9-3.8 6.7-7.6 13.4-11.5 20.1-.3-.2-.6-.3-.9-.4zm130.4-41.5v42.4c-3.5-3.8-4.7-8.1-7.3-11.2-6-7.2-6-13.9 0-21.1 2.6-3.1 4.2-7 6.2-10.5.3.2.7.3 1.1.4zm-80.2 87.4c-11.6-6.7-23.3-13.4-34.9-20.1.1-.4.1-.8.2-1.2 7.7 0 15.3 0 23 .1.6 0 1.4.9 1.8 1.5 3.7 6.3 7.3 12.6 10.9 18.9-.4.3-.7.5-1 .8zm28.9-.8c3.6-6.3 7.3-12.6 10.8-18.9.8-1.3 1.8-1.7 3.3-1.7 7.1 0 14.2 0 21.8 1.2-11.6 6.7-23.3 13.5-34.9 20.2-.4-.3-.7-.5-1-.8zm-63.8-112.5c11.7-6.7 23.4-13.5 35-20.2.3.3.6.5.9.8-3.8 6.5-7.6 13-11.4 19.6-.5.8-1.3 1-2.1 1h-22.2c0-.4-.1-.8-.2-1.2zm64.6-20.1c11.6 6.7 23.3 13.4 34.9 20.1 0 .4 0 .9-.1 1.3-4.4 0-9-.5-13.3.1-7.9 1.2-12.8-1.6-15.8-9-1.7-4.1-4.3-7.8-6.5-11.7.3-.3.6-.5.8-.8zm-58.8 34.3c2.8.6 7.5-1.8 9.2 1.1 1.3 2.3-2.6 5.6-4 8.5-1.1 2.2-2.5 4.3-3.7 6.5-1.5 2.8-2.6 2.3-4-.1-2.2-4.1-4.5-8.1-7-12.1-1.9-3.1-.8-4.1 2.4-4 2.2.2 4.4.1 7.1.1zm88.5-.1c3.2.5 7.9-1.5 9.3 1 1.6 2.8-2.3 6-3.9 9-5.4 9.6-5.5 9.6-11-.1-1.6-2.9-5.5-6.2-3.9-9 1.4-2.3 6.2-.4 9.5-.9zm-33.9 78.3c-3.6 6.2-6.8 11.8-10.5 18.2-3.7-6.3-7-11.9-10.6-18.2h21.1z"/>
						</g>
					</svg>