<svg xmlns="http://www.w3.org/2000/svg" viewBox="0 0 3000 3000" style="enable-background:new 0 0 3000 3000" xml:space="preserve">
						<g stroke="none">
						<path class="st2" d="M1835.5 1775.5c-19-3.5-32.8-20-32.8-39.4v-464c0-19.9-16.3-36.6-36.2-36.2-19.3.4-34.8 16.1-34.8 35.5v464.8c0 19.3-13.8 35.9-32.8 39.4-200.8 36.4-346.6 230.6-304.4 449.5 29.5 152.9 151.1 271.8 304.6 298.5 239.9 41.7 448.2-141.9 448.2-374.1-.1-186.7-134.6-341.8-311.8-374z"/>
						<path class="st2" d="M1974 1631.5c0-.1 0-.1 0 0v-1199c-1.9-112.6-93.7-203.3-206.8-203.3-111.6 0-202.6 88.4-206.7 199-.1.8-.2 1.7-.2 2.5v1200.8c-205.5 82.2-350.7 283.1-350.7 517.9 0 307.9 249.6 557.5 557.5 557.5s557.5-249.6 557.5-557.5c.1-234.9-145.1-435.8-350.6-517.9zm-196.3 1007.1c-275.1 5.8-501.8-217.6-499.9-492.7 1.5-220.5 148.8-406.4 350.4-466V589.1c.2.2.4.4.7.6V443h.2c-.1-2.3-.2-4.7-.2-7 0-77.2 62.6-139.8 139.8-139.8 68.2 0 124.9 48.8 137.3 113.3v1199.8c-.1 0-.2-.1-.3-.1v70.6c.1 0 .2.1.3.1h.2c202.6 59.9 350.5 247.4 350.5 469.4-.1 266.8-213.6 483.7-479 489.3z"/>
						<path class="st2" d="M1492.5 510.4 1415 615.6l-18-128.5 71-96.4c10.3-14 7.4-33.8-6.7-44.2-14-10.3-33.8-7.4-44.2 6.7l-32.7 44.4-21-149.8c-2.4-17.3-18.4-29.3-35.7-26.9s-29.3 18.4-26.9 35.7l21.8 155.2-50.3-39c-13.8-10.7-33.6-8.2-44.3 5.6-10.7 13.8-8.2 33.6 5.6 44.3l101.5 78.7 18.1 128.8L1196.9 509c-13.8-10.7-33.6-8.2-44.3 5.6s-8.2 33.6 5.6 44.3L1365.8 720l12.9 92.2-57.8-44.8c-13.8-10.7-33.6-8.2-44.3 5.6-10.7 13.8-8.2 33.6 5.6 44.3l93.9 72.8c-40.9 13.6-77.2 37.9-105.2 69.9l-1.1-.6-37.7-122.1c-5.1-16.7-22.8-26-39.5-20.9s-26 22.8-20.9 39.5l18.6 60.4-81.6-44.3-74.6-241.8c-5.1-16.7-22.8-26-39.5-20.9s-26 22.8-20.9 39.5l55.6 180.1L915.4 767l-35.3-114.4c-5.1-16.7-22.8-26-39.5-20.9-16.7 5.1-26 22.8-20.9 39.5l16.3 52.7-133-72.1c-15.3-8.3-34.5-2.6-42.8 12.7s-2.6 34.5 12.7 42.8L810.6 782l-61.2 17.3c-16.8 4.7-26.6 22.2-21.8 39 4.7 16.8 22.2 26.6 39 21.8l123.7-34.9 114.3 62.1L814.2 941c-16.8 4.7-26.6 22.2-21.8 39 4.7 16.8 22.2 26.6 39 21.8l252.8-71.3 81.8 44.4-70.4 19.8c-16.8 4.7-26.6 22.2-21.8 39 4.7 16.8 22.2 26.6 39 21.8l118.6-33.4c-10.2 23.3-16.8 48.5-19.1 75.2-1.8 20.3-1 40.2 2.1 59.4l-109.4-46.1c-16.1-6.8-34.6.8-41.4 16.8-6.8 16.1.8 34.6 16.8 41.4l58.3 24.6-86.4 34.1-233.2-98.3c-16.1-6.8-34.6.8-41.4 16.8-6.8 16.1.8 34.6 16.8 41.4l173.7 73.2-120.7 47.6-110.3-46.5c-16.1-6.8-34.6.8-41.4 16.8-6.8 16.1.8 34.6 16.8 41.4l50.8 21.4-140.7 55.5c-16.2 6.4-24.2 24.7-17.8 41 6.4 16.2 24.7 24.2 41 17.8l145.8-57.5-26.1 58c-7.2 15.9-.1 34.6 15.8 41.8 15.9 7.2 34.6.1 41.8-15.8l52.8-117.2 121-47.7-81.2 180.3c-7.2 15.9-.1 34.6 15.8 41.8 15.9 7.2 34.6.1 41.8-15.8l107.8-239.5 86.6-34.2-30 66.7c-7.2 15.9-.1 34.6 15.8 41.8 15.9 7.2 34.6.1 41.8-15.8l47.3-105.1c20.9 36.6 51.2 67.5 88 88.9l-101.6 46.7c-15.9 7.3-22.8 26-15.5 41.9 7.3 15.9 26 22.8 41.9 15.5l57.5-26.4-33.2 86.7-230 105.7c-15.9 7.3-22.8 26-15.5 41.9s26 22.8 41.9 15.5l171.3-78.7-46.4 121.2-108.8 50c-15.9 7.3-22.8 26-15.5 41.9s26 22.8 41.9 15.5l50.1-23-54.1 141.2c-6.2 16.3 1.9 34.6 18.2 40.8 12.7 4.9 26.6 1 35.1-8.7 9.4-28.7 20.7-56.5 33.9-83.2l27.8-72.7 5.7 13.2c13.2-20.7 27.6-40.6 43.1-59.6l-16.4-38.2 46.5-121.5 38 88.3c16.3-14.6 33.3-28.4 51-41.2l-56.6-131.7 33.3-86.9 28.9 67.2c6.9 16 25.5 23.4 41.5 16.5 16-6.9 23.4-25.5 16.5-41.5l-45.9-106.6c5 .8 10.1 1.4 15.3 1.8 21.1 1.9 41.8.9 61.7-2.5v-474c-6.5-1.1-13.1-2-19.7-2.6-4.6-.4-9.1-.7-13.6-.8l33.3-45.2v-97.6c-5.6 2.1-10.8 5.7-14.6 10.9l-37.5 50.9-12.9-91.9 65-88.2V510.4z"/>
						</g>
					</svg>